# xmcd
#
# Track frame offsets:
#  150
#  20787
#  40237
#  59562
#  79062
#  93737
#  115800
#  137250
#  157030
#  171900
#  197337
#  217505
#  237105
#  255162
#
# Disc length: 3659 seconds
#
# Revision: 0
# Processed by: cddbd v1.4PL0 Copyright (c) Steve Scherf et al.
# Submitted via: AltoMP3_Maker 3.0
#
DISCID=b00e490e
DTITLE=童安格 - 忘不了
DYEAR=1900
DGENRE=
TTITLE0=耶利亚女郎
TTITLE1=明天你是否依然爱我
TTITLE2=忘不了
TTITLE3=我曾经爱过
TTITLE4=星月
TTITLE5=回首的梦
TTITLE6=梦开始的地方
TTITLE7=让生命等候
TTITLE8=其实你不懂我的心
TTITLE9=等我一起入梦
TTITLE10=想你
TTITLE11=柔情
TTITLE12=不要分离
TTITLE13=夜归汉
EXTD=
EXTT0=
EXTT1=
EXTT2=
EXTT3=
EXTT4=
EXTT5=
EXTT6=
EXTT7=
EXTT8=
EXTT9=
EXTT10=
EXTT11=
EXTT12=
EXTT13=
PLAYORDER=
